<?xml version="1.0" standalone="no"?>
<!DOCTYPE svg PUBLIC "-//W3C//DTD SVG 20010904//EN"
 "http://www.w3.org/TR/2001/REC-SVG-20010904/DTD/svg10.dtd">
<svg version="1.0" xmlns="http://www.w3.org/2000/svg"
 width="1024.000000pt" height="1024.000000pt" viewBox="0 0 1024.000000 1024.000000"
 preserveAspectRatio="xMidYMid meet">
<metadata>
Created by potrace 1.11, written by Peter Selinger 2001-2013
</metadata>
<g transform="translate(0.000000,1024.000000) scale(0.100000,-0.100000)"
fill="#000000" stroke="none">
<path d="M2835 6504 c-922 -47 -1640 -256 -2302 -671 l-102 -64 -97 57 c-83
49 -263 138 -316 157 -17 6 -18 -141 -18 -2988 l0 -2995 5120 0 5120 0 0 779
0 779 -132 13 c-89 9 -257 14 -508 14 -460 -1 -668 -16 -1405 -101 -868 -100
-999 -114 -1210 -133 -381 -35 -598 -44 -968 -38 -456 6 -675 32 -1002 117
-174 45 -286 84 -399 141 -355 178 -805 608 -1521 1449 -180 212 -592 703
-625 744 -15 19 -11 19 130 12 308 -15 747 -63 1507 -166 1280 -173 1715 -212
2368 -212 428 0 778 23 1625 108 575 57 1570 175 2020 239 58 8 108 15 113 15
4 0 7 414 7 920 l0 920 -67 0 c-38 0 -216 5 -398 10 -1441 42 -1886 99 -3640
465 -1299 271 -1852 362 -2490 410 -193 14 -677 26 -810 19z"/>
</g>
</svg>
