<?xml version="1.0" encoding="UTF-8" standalone="no"?>
<!-- Created with Inkscape (http://www.inkscape.org/) -->

<svg
   xmlns:dc="http://purl.org/dc/elements/1.1/"
   xmlns:cc="http://creativecommons.org/ns#"
   xmlns:rdf="http://www.w3.org/1999/02/22-rdf-syntax-ns#"
   xmlns:svg="http://www.w3.org/2000/svg"
   xmlns="http://www.w3.org/2000/svg"
   xmlns:sodipodi="http://sodipodi.sourceforge.net/DTD/sodipodi-0.dtd"
   xmlns:inkscape="http://www.inkscape.org/namespaces/inkscape"
   width="1920"
   height="400"
   viewBox="0 0 507.99999 105.83334"
   version="1.1"
   id="svg8"
   inkscape:version="0.92.3 (2405546, 2018-03-11)"
   sodipodi:docname="header.svg">
  <defs
     id="defs2">
    <filter
       style="color-interpolation-filters:sRGB;"
       inkscape:label="Blur"
       id="filter4535"
       x="-0.20000000000000001"
       width="1.3999999999999999"
       y="-0.20000000000000001"
       height="1.3999999999999999">
      <feGaussianBlur
         stdDeviation="5 5"
         result="blur"
         id="feGaussianBlur4533" />
    </filter>
  </defs>
  <sodipodi:namedview
     id="base"
     pagecolor="#60ffff"
     bordercolor="#666666"
     borderopacity="1.0"
     inkscape:pageopacity="1"
     inkscape:pageshadow="2"
     inkscape:zoom="0.74166667"
     inkscape:cx="955.79576"
     inkscape:cy="100"
     inkscape:document-units="px"
     inkscape:current-layer="layer1"
     showgrid="false"
     units="px"
     inkscape:window-width="1920"
     inkscape:window-height="1017"
     inkscape:window-x="-8"
     inkscape:window-y="-8"
     inkscape:window-maximized="1"
     inkscape:snap-page="true" />
  <metadata
     id="metadata5">
    <rdf:RDF>
      <cc:Work
         rdf:about="">
        <dc:format>image/svg+xml</dc:format>
        <dc:type
           rdf:resource="http://purl.org/dc/dcmitype/StillImage" />
        <dc:title></dc:title>
      </cc:Work>
    </rdf:RDF>
  </metadata>
  <g
     inkscape:label="Layer 1"
     inkscape:groupmode="layer"
     id="layer1"
     transform="translate(0,-191.16665)">
    <rect
       style="opacity:1;fill:#60ffff;fill-opacity:1;stroke:none;stroke-width:10.58333397;stroke-linecap:round;stroke-linejoin:miter;stroke-miterlimit:4;stroke-dasharray:none;stroke-opacity:1;paint-order:stroke markers fill"
       id="rect4537"
       width="508"
       height="105.83334"
       x="5.4999996e-006"
       y="191.16664" />
    <path
       style="fill:#803300;stroke:none;stroke-width:0.26458335px;stroke-linecap:butt;stroke-linejoin:miter;stroke-opacity:1"
       d="m -1.4269663,247.05617 c 18.9374113,-21.39838 42.4517483,-7.18587 65.2837083,-3.92416 15.519609,2.21709 69.537588,0.54017 83.834278,-2.14045 16.87576,-3.16421 29.86791,-13.46516 46.3764,-16.76686 25.63803,-5.1276 54.34169,-2.23519 80.62359,-7.49157 12.80882,-2.56176 50.24308,7.83873 65.28371,10.34551 23.2011,3.86685 56.2237,-5.90982 76.69946,-2.4972 11.04069,1.84012 21.58013,6.75999 32.46347,7.84832 13.78509,1.37851 31.33704,1.36129 43.87922,6.06461 5.21613,1.95604 11.92067,4.65881 16.76686,5.35112 l 1.07021,59.57584 -513.3511311,-1.42696 z"
       id="path4521"
       inkscape:connector-curvature="0" />
    <path
       style="fill:#d45500;stroke:none;stroke-width:0.26458335px;stroke-linecap:butt;stroke-linejoin:miter;stroke-opacity:1"
       d="m -2.4971911,263.46628 c 18.1628761,-12.80447 36.6031211,0.29952 57.4353951,-1.78371 11.900054,-1.19 24.071096,-3.38725 35.674158,-5.70787 9.848428,-1.96968 23.752438,0.35674 33.890448,0.35674 32.53114,0 60.72045,-6.11418 86.33146,-23.1882 4.71555,-3.1437 13.79205,0.9523 19.26405,-1.78371 8.30876,-4.15437 42.25919,10.1642 52.08428,12.12922 15.9108,3.18216 36.73391,2.18125 53.15448,0.35674 15.79274,-1.75475 35.12235,-7.61634 50.65731,-6.42135 12.86288,0.98946 49.26843,4.57184 59.57583,2.85394 10.6317,-1.77195 16.27984,-10.99386 24.25843,-14.98315 5.27781,-2.6389 33.61765,8.26801 40.66855,9.27528 l -1.07022,83.12079 -512.6376542,0.35674 z"
       id="path4523"
       inkscape:connector-curvature="0" />
    <path
       style="fill:#ff9955;stroke:none;stroke-width:0.26458335px;stroke-linecap:butt;stroke-linejoin:miter;stroke-opacity:1"
       d="m -2.1404495,234.21347 c 13.2962275,3.35367 29.0175505,42.15625 38.8848315,47.08989 12.617085,6.30854 31.551518,-3.55669 44.592699,0 4.967438,1.35475 10.468107,5.07611 14.626405,7.84831 11.154644,7.43643 45.235414,-3.53203 55.294944,-8.5618 14.81812,-7.40905 39.358,8.46959 54.58146,6.77809 8.53058,-0.94784 15.94985,-5.50361 23.90169,-7.49157 5.53855,-1.38464 13.51173,2.24455 18.55056,3.92416 2.52243,0.84081 52.87802,-3.32407 62.07303,-4.63764 11.51689,-1.64527 47.96317,-19.89763 56.36517,-15.69663 13.79109,6.89553 28.66136,8.8403 42.809,13.55618 5.02315,1.67438 11.48131,-1.28619 16.4101,0.35674 6.09012,2.03003 12.37221,5.68259 18.90731,7.13483 21.97529,4.88339 49.54868,-7.75501 68.13764,4.63764 l -6.77809,36.0309 -508.7134911,1.78371 z"
       id="path4525"
       inkscape:connector-curvature="0" />
    <circle
       style="opacity:1;fill:#ffdd55;fill-opacity:1;stroke:none;stroke-width:10.58333492;stroke-linecap:round;stroke-linejoin:miter;stroke-miterlimit:4;stroke-dasharray:none;stroke-opacity:1;paint-order:stroke markers fill;filter:url(#filter4535)"
       id="path4527"
       cx="41.084736"
       cy="191.34502"
       r="26.458334" />
  </g>
</svg>
