<?xml version="1.0" encoding="UTF-8" standalone="no"?>
<!-- Created with Inkscape (http://www.inkscape.org/) -->

<svg
   xmlns:dc="http://purl.org/dc/elements/1.1/"
   xmlns:cc="http://creativecommons.org/ns#"
   xmlns:rdf="http://www.w3.org/1999/02/22-rdf-syntax-ns#"
   xmlns:svg="http://www.w3.org/2000/svg"
   xmlns="http://www.w3.org/2000/svg"
   xmlns:sodipodi="http://sodipodi.sourceforge.net/DTD/sodipodi-0.dtd"
   xmlns:inkscape="http://www.inkscape.org/namespaces/inkscape"
   width="1920"
   height="400"
   viewBox="0 0 507.99999 105.83334"
   version="1.1"
   id="svg8"
   inkscape:version="0.92.3 (2405546, 2018-03-11)"
   sodipodi:docname="header.svg">
  <defs
     id="defs2">
    <filter
       style="color-interpolation-filters:sRGB;"
       inkscape:label="Blur"
       id="filter4535"
       x="-0.20000000000000001"
       width="1.3999999999999999"
       y="-0.20000000000000001"
       height="1.3999999999999999">
      <feGaussianBlur
         stdDeviation="5 5"
         result="blur"
         id="feGaussianBlur4533" />
    </filter>
  </defs>
  <sodipodi:namedview
     id="base"
     pagecolor="#60ffff"
     bordercolor="#666666"
     borderopacity="1.0"
     inkscape:pageopacity="1"
     inkscape:pageshadow="2"
     inkscape:zoom="0.74166667"
     inkscape:cx="955.79576"
     inkscape:cy="100"
     inkscape:document-units="px"
     inkscape:current-layer="layer1"
     showgrid="false"
     units="px"
     inkscape:window-width="1920"
     inkscape:window-height="1017"
     inkscape:window-x="-8"
     inkscape:window-y="-8"
     inkscape:window-maximized="1"
     inkscape:snap-page="true" />
  <metadata
     id="metadata5">
    <rdf:RDF>
      <cc:Work
         rdf:about="">
        <dc:format>image/svg+xml</dc:format>
        <dc:type
           rdf:resource="http://purl.org/dc/dcmitype/StillImage" />
        <dc:title></dc:title>
      </cc:Work>
    </rdf:RDF>
  </metadata>
  <g
     inkscape:label="Layer 1"
     inkscape:groupmode="layer"
     id="layer1"
     transform="translate(0,-191.16665)">
    <rect
       style="opacity:1;fill:#60ffff;fill-opacity:1;stroke:none;stroke-width:10.58333397;stroke-linecap:round;stroke-linejoin:miter;stroke-miterlimit:4;stroke-dasharray:none;stroke-opacity:1;paint-order:stroke markers fill"
       id="rect4537"
       width="508"
       height="105.83334"
       x="5.4999996e-006"
       y="191.16664" />
    <path
       style="fill:#803300;stroke:none;stroke-width:1px;stroke-linecap:butt;stroke-linejoin:miter;stroke-opacity:1"
       d="M 1057.1953 95.107422 C 1049.906 95.097404 1043.4981 95.569911 1038.2031 96.628906 C 938.86996 116.49554 830.38206 105.56345 733.48242 124.94336 C 671.08813 137.42223 621.98552 176.35523 558.20312 188.31445 C 504.16839 198.44593 300.00444 204.78385 241.34766 196.4043 C 157.20701 184.3842 70.618125 133.03829 0 205.45312 L 0 400 L 1920 400 L 1920 197.87109 C 1902.5346 194.11217 1880.7666 185.40025 1863.3711 178.87695 C 1815.9676 161.10063 1749.6285 161.16519 1697.5273 155.95508 C 1656.3935 151.8417 1616.5606 133.24775 1574.832 126.29297 C 1497.4433 113.39488 1372.6326 150.34533 1284.9434 135.73047 C 1234.3145 127.29229 1116.551 95.188999 1057.1953 95.107422 z "
       transform="matrix(0.26458334,0,0,0.26458334,0,191.16665)"
       id="path4521" />
    <path
       style="fill:#d45500;stroke:none;stroke-width:1px;stroke-linecap:butt;stroke-linejoin:miter;stroke-opacity:1"
       d="m 1785.1836,127.4375 c -4.0479,-0.0181 -7.2714,0.4599 -9.4531,1.55078 -30.1553,15.07763 -51.5028,49.93177 -91.6856,56.62891 -38.9571,6.49285 -176.5523,-7.04547 -225.1679,-10.78516 -58.7149,-4.5165 -131.7719,17.63741 -191.461,24.26953 -62.062,6.89579 -140.7631,10.67745 -200.8984,-1.34961 -37.1342,-7.42684 -165.4523,-61.54335 -196.85549,-45.84179 -20.68157,10.34082 -54.98604,-5.13952 -72.80859,6.74218 -96.79752,64.53173 -203.33868,87.64063 -326.29102,87.64063 -38.31689,0 -90.86744,-8.79407 -128.08984,-1.34961 -43.8541,8.77085 -89.85545,17.07658 -134.83204,21.57422 C 132.51023,274.03063 65.610983,229.28343 0,267.21484 V 400 H 1920 V 197.87109 c -32.0616,-7.99052 -105.3113,-70.3017 -134.8164,-70.43359 z"
       transform="matrix(0.26458334,0,0,0.26458334,0,191.16665)"
       id="path4523"
       inkscape:connector-curvature="0"
       sodipodi:nodetypes="ccscsscsscsccccc" />
    <path
       style="fill:#ff9955;stroke:none;stroke-width:1px;stroke-linecap:butt;stroke-linejoin:miter;stroke-opacity:1"
       d="M 0,165.83594 V 400 h 1920 l 0,-234.16405 c -69.1785,-29.00437 -162.7484,203.84016 -238.6523,186.97264 -24.6996,-5.48878 -48.4432,-19.29424 -71.461,-26.96679 -18.6285,-6.2095 -43.0363,4.98071 -62.0215,-1.34766 -53.4714,-17.8238 -109.673,-25.17448 -161.7968,-51.23633 -31.7556,-15.87779 -169.5068,53.10783 -213.0352,59.32617 -34.7528,4.96468 -225.07187,20.70717 -234.60547,17.5293 -19.04439,-6.34813 -49.18017,-20.06531 -70.11328,-14.83203 -30.05419,7.51355 -58.09633,24.73207 -90.33789,28.31445 -57.53748,6.39307 -150.28552,-53.62185 -206.29101,-25.61914 -38.02027,19.01016 -166.829,60.46752 -208.98828,32.36133 -15.71641,-10.47761 -36.50669,-24.54375 -55.28125,-29.66406 -49.28951,-13.44261 -120.85245,23.8433 -168.53907,0 C 103.56595,323.01833 48.420827,190.62458 0,165.83594 Z"
       transform="matrix(0.26458334,0,0,0.26458334,0,191.16665)"
       id="path4525"
       inkscape:connector-curvature="0"
       sodipodi:nodetypes="ccccsccssssscscsc" />
  </g>
</svg>
