<?xml version="1.0" encoding="UTF-8" standalone="no"?>
<!-- Created with Inkscape (http://www.inkscape.org/) -->

<svg
   xmlns:dc="http://purl.org/dc/elements/1.1/"
   xmlns:cc="http://creativecommons.org/ns#"
   xmlns:rdf="http://www.w3.org/1999/02/22-rdf-syntax-ns#"
   xmlns:svg="http://www.w3.org/2000/svg"
   xmlns="http://www.w3.org/2000/svg"
   xmlns:sodipodi="http://sodipodi.sourceforge.net/DTD/sodipodi-0.dtd"
   xmlns:inkscape="http://www.inkscape.org/namespaces/inkscape"
   width="1920"
   height="200"
   viewBox="0 0 507.99999 52.91667"
   version="1.1"
   id="svg8"
   inkscape:version="0.92.3 (2405546, 2018-03-11)"
   sodipodi:docname="header.svg">
  <defs
     id="defs2">
    <filter
       style="color-interpolation-filters:sRGB"
       inkscape:label="Blur"
       id="filter4535"
       x="-0.2"
       width="1.4"
       y="-0.2"
       height="1.4">
      <feGaussianBlur
         stdDeviation="5 5"
         result="blur"
         id="feGaussianBlur4533" />
    </filter>
  </defs>
  <sodipodi:namedview
     id="base"
     pagecolor="#60ffff"
     bordercolor="#666666"
     borderopacity="1.0"
     inkscape:pageopacity="1"
     inkscape:pageshadow="2"
     inkscape:zoom="0.74166667"
     inkscape:cx="955.79576"
     inkscape:cy="100"
     inkscape:document-units="px"
     inkscape:current-layer="layer1"
     showgrid="false"
     units="px"
     inkscape:window-width="1920"
     inkscape:window-height="1017"
     inkscape:window-x="-8"
     inkscape:window-y="-8"
     inkscape:window-maximized="1"
     inkscape:snap-page="true" />
  <metadata
     id="metadata5">
    <rdf:RDF>
      <cc:Work
         rdf:about="">
        <dc:format>image/svg+xml</dc:format>
        <dc:type
           rdf:resource="http://purl.org/dc/dcmitype/StillImage" />
        <dc:title></dc:title>
      </cc:Work>
    </rdf:RDF>
  </metadata>
  <g
     inkscape:label="Layer 1"
     inkscape:groupmode="layer"
     id="layer1"
     transform="translate(0,-244.08332)">
    <rect
       style="opacity:1;fill:#60ffff;fill-opacity:1;stroke:none;stroke-width:10.58333397;stroke-linecap:round;stroke-linejoin:miter;stroke-miterlimit:4;stroke-dasharray:none;stroke-opacity:1;paint-order:stroke markers fill"
       id="rect4537"
       width="508"
       height="52.916668"
       x="5.4999996e-006"
       y="244.08333" />
    <path
       style="fill:#803300;stroke:none;stroke-width:0.26458335px;stroke-linecap:butt;stroke-linejoin:miter;stroke-opacity:1"
       d="m 279.71626,256.66524 c -1.92862,-10e-4 -3.62405,0.0612 -5.02502,0.20128 -26.28189,2.62819 -54.98598,1.18196 -80.62401,3.74576 -16.50849,1.65085 -29.50022,6.80137 -46.37598,8.38347 -14.29669,1.34031 -68.315073,2.17877 -83.83468,1.07022 C 41.594356,268.47581 18.684379,261.68318 0,271.26305 v 25.73693 h 508.00001 v -26.73997 c -4.62105,-0.49727 -10.3805,-1.64978 -14.98306,-2.51276 -12.54218,-2.35166 -30.0944,-2.34312 -43.87951,-3.03237 -10.88332,-0.54417 -21.42244,-3.00399 -32.46313,-3.92405 -20.47576,-1.70631 -53.49859,3.18192 -76.69969,1.2485 -13.39557,-1.1163 -44.55383,-5.3633 -60.25836,-5.37409 z"
       id="path4521"
       inkscape:connector-curvature="0" />
    <path
       style="fill:#d45500;stroke:none;stroke-width:0.26458335px;stroke-linecap:butt;stroke-linejoin:miter;stroke-opacity:1"
       d="m 472.32984,260.94224 c -1.07101,-0.002 -1.92389,0.0608 -2.50113,0.20515 -7.97859,1.99465 -13.62679,6.60556 -24.25849,7.49154 -10.3074,0.85895 -46.71279,-0.93206 -59.57567,-1.42679 -15.53499,-0.5975 -34.86465,2.33328 -50.65739,3.21066 -16.42057,0.91225 -37.24357,1.41253 -53.15437,-0.17855 -9.82509,-0.98251 -43.77592,-8.14167 -52.08468,-6.06448 -5.472,1.368 -14.54839,-0.67992 -19.26394,0.89193 -25.61102,8.53701 -53.80003,11.59413 -86.33117,11.59413 -10.13801,0 -24.04201,-1.16339 -33.89044,-0.17855 -11.603064,1.16031 -23.774255,2.25909 -35.674311,2.85409 C 35.059999,280.33529 17.359573,274.41561 0,279.43361 v 17.56637 h 508.00001 v -26.73997 c -8.48296,-1.05707 -27.86361,-9.30032 -35.67017,-9.31777 z"
       id="path4523"
       inkscape:connector-curvature="0"
       sodipodi:nodetypes="ccscsscsscsccccc" />
    <path
       style="fill:#ff9955;stroke:none;stroke-width:0.26458335px;stroke-linecap:butt;stroke-linejoin:miter;stroke-opacity:1"
       d="m 0,266.02203 v 30.97795 h 508.00001 v -30.97795 c -18.30348,-3.83703 -43.06051,26.96636 -63.14342,24.73492 -6.5351,-0.72612 -12.81726,-2.55246 -18.90739,-3.56748 -4.92879,-0.82146 -11.38669,0.65891 -16.40986,-0.17828 -14.14764,-2.35794 -29.01764,-3.33038 -42.80873,-6.77814 -8.40201,-2.1005 -44.84868,7.02572 -56.36557,7.84836 -9.19501,0.65678 -59.55027,2.73938 -62.0727,2.31898 -5.03883,-0.83981 -13.01225,-2.65448 -18.5508,-1.96216 -7.95184,0.99398 -15.37132,3.27185 -23.9019,3.74577 -15.22346,0.84575 -39.76305,-7.09372 -54.58117,-3.3892 -10.05953,2.51489 -44.14017,7.99935 -55.294815,4.28113 -4.1583,-1.3861 -9.659062,-3.24693 -14.626498,-3.9243 -13.041183,-1.77835 -31.975545,3.15427 -44.59263,0 C 27.401825,286.81595 12.811344,269.30136 0,266.02203 Z"
       id="path4525"
       inkscape:connector-curvature="0"
       sodipodi:nodetypes="ccccsccssssscscsc" />
  </g>
</svg>
