<?xml version="1.0" encoding="UTF-8" standalone="no"?>
<!-- Created with Inkscape (http://www.inkscape.org/) -->

<svg
   xmlns:dc="http://purl.org/dc/elements/1.1/"
   xmlns:cc="http://creativecommons.org/ns#"
   xmlns:rdf="http://www.w3.org/1999/02/22-rdf-syntax-ns#"
   xmlns:svg="http://www.w3.org/2000/svg"
   xmlns="http://www.w3.org/2000/svg"
   xmlns:sodipodi="http://sodipodi.sourceforge.net/DTD/sodipodi-0.dtd"
   xmlns:inkscape="http://www.inkscape.org/namespaces/inkscape"
   width="1920"
   height="300"
   viewBox="0 0 507.99999 79.375005"
   version="1.1"
   id="svg8"
   inkscape:version="0.92.3 (2405546, 2018-03-11)"
   sodipodi:docname="header.svg">
  <defs
     id="defs2">
    <filter
       style="color-interpolation-filters:sRGB"
       inkscape:label="Blur"
       id="filter4535"
       x="-0.2"
       width="1.4"
       y="-0.2"
       height="1.4">
      <feGaussianBlur
         stdDeviation="5 5"
         result="blur"
         id="feGaussianBlur4533" />
    </filter>
  </defs>
  <sodipodi:namedview
     id="base"
     pagecolor="#60ffff"
     bordercolor="#666666"
     borderopacity="1.0"
     inkscape:pageopacity="1"
     inkscape:pageshadow="2"
     inkscape:zoom="0.74166667"
     inkscape:cx="955.79576"
     inkscape:cy="100"
     inkscape:document-units="px"
     inkscape:current-layer="layer1"
     showgrid="false"
     units="px"
     inkscape:window-width="1920"
     inkscape:window-height="1017"
     inkscape:window-x="-8"
     inkscape:window-y="-8"
     inkscape:window-maximized="1"
     inkscape:snap-page="true" />
  <metadata
     id="metadata5">
    <rdf:RDF>
      <cc:Work
         rdf:about="">
        <dc:format>image/svg+xml</dc:format>
        <dc:type
           rdf:resource="http://purl.org/dc/dcmitype/StillImage" />
        <dc:title></dc:title>
      </cc:Work>
    </rdf:RDF>
  </metadata>
  <g
     inkscape:label="Layer 1"
     inkscape:groupmode="layer"
     id="layer1"
     transform="translate(0,-217.62499)">
    <rect
       style="opacity:1;fill:#60ffff;fill-opacity:1;stroke:none;stroke-width:10.58333397;stroke-linecap:round;stroke-linejoin:miter;stroke-miterlimit:4;stroke-dasharray:none;stroke-opacity:1;paint-order:stroke markers fill"
       id="rect4537"
       width="508"
       height="79.375"
       x="5.4999996e-006"
       y="217.625" />
    <path
       style="fill:#803300;stroke:none;stroke-width:0.26458335px;stroke-linecap:butt;stroke-linejoin:miter;stroke-opacity:1"
       d="m 279.71626,230.85414 c -1.92862,-0.001 -3.62405,0.10037 -5.02502,0.33009 -26.28189,4.31003 -54.98598,1.93832 -80.62401,6.14275 -16.50849,2.70726 -29.50022,11.15372 -46.37598,13.74823 -14.29669,2.19801 -68.315073,3.57302 -83.83468,1.75508 C 41.594356,250.22256 18.684379,239.08317 0,254.79342 v 42.20655 h 508.00001 v -43.85146 c -4.62105,-0.81549 -10.3805,-2.70551 -14.98306,-4.12073 -12.54218,-3.85654 -30.0944,-3.84254 -43.87951,-4.97286 -10.88332,-0.89239 -21.42244,-4.9263 -32.46313,-6.43513 -20.47576,-2.79822 -53.49859,5.2181 -76.69969,2.04743 -13.39557,-1.83064 -44.55383,-8.79539 -60.25836,-8.81308 z"
       id="path4521"
       inkscape:connector-curvature="0" />
    <path
       style="fill:#d45500;stroke:none;stroke-width:0.26458335px;stroke-linecap:butt;stroke-linejoin:miter;stroke-opacity:1"
       d="m 472.32984,242.91336 c -1.07101,-0.003 -1.92389,0.0912 -2.50113,0.30773 -7.97859,2.99197 -13.62679,9.90834 -24.25849,11.2373 -10.3074,1.28843 -46.71279,-1.39808 -59.57567,-2.14018 -15.53499,-0.89625 -34.86465,3.49992 -50.65739,4.81599 -16.42057,1.36838 -37.24357,2.1188 -53.15437,-0.26782 -9.82509,-1.47377 -43.77592,-12.21251 -52.08468,-9.09672 -5.472,2.052 -14.54839,-1.01988 -19.26394,1.33789 -25.61102,12.80552 -53.80003,17.3912 -86.33117,17.3912 -10.13801,0 -24.04201,-1.74509 -33.89044,-0.26783 -11.603064,1.74047 -23.774255,3.38864 -35.674311,4.28114 C 35.059999,272.00293 17.359573,263.12342 0,270.65041 v 26.34956 h 508.00001 v -40.10996 c -8.48296,-1.5856 -27.86361,-13.95048 -35.67017,-13.97665 z"
       id="path4523"
       inkscape:connector-curvature="0"
       sodipodi:nodetypes="ccscsscsscsccccc" />
    <path
       style="fill:#ff9955;stroke:none;stroke-width:0.26458335px;stroke-linecap:butt;stroke-linejoin:miter;stroke-opacity:1"
       d="m 0,250.53304 v 46.46693 h 508.00001 v -46.46693 c -18.30348,-5.75554 -43.06051,40.44954 -63.14342,37.10238 -6.5351,-1.08918 -12.81726,-3.82869 -18.90739,-5.35122 -4.92879,-1.23219 -11.38669,0.98837 -16.40986,-0.26741 -14.14764,-3.53692 -29.01764,-4.99558 -42.80873,-10.16722 -8.40201,-3.15075 -44.84868,10.53858 -56.36557,11.77254 -9.19501,0.98518 -59.55027,4.10907 -62.0727,3.47848 -5.03883,-1.25972 -13.01225,-3.98172 -18.5508,-2.94324 -7.95184,1.49097 -15.37132,4.90777 -23.9019,5.61865 -15.22346,1.26863 -39.76305,-10.64058 -54.58117,-5.0838 -10.05953,3.77233 -44.14017,11.99903 -55.294815,6.4217 -4.1583,-2.07915 -9.659062,-4.8704 -14.626498,-5.88646 -13.041183,-2.66752 -31.975545,4.73141 -44.59263,0 C 27.401825,281.72392 12.811344,255.45204 0,250.53304 Z"
       id="path4525"
       inkscape:connector-curvature="0"
       sodipodi:nodetypes="ccccsccssssscscsc" />
  </g>
</svg>
